<svg width="131" height="37" viewBox="0 0 131 37" fill="none" xmlns="http://www.w3.org/2000/svg">
<g clip-path="url(#clip0_353_922)">
<path d="M23.8828 16.1376H19.884V0.115409H26.3263L29.8259 10.029L33.3256 0.115409H39.8791V16.1376H35.6579V4.9568L31.7181 16.0256C31.4424 16.3176 28.5497 16.0326 27.9505 16.1445L23.8839 4.9568V16.1376H23.8828ZM112.806 16.2518H116.805C116.817 16.2518 116.971 16.0914 116.971 16.0787V6.22399L123.414 16.2518H128.412V0.115409H124.302V9.56737C123.813 9.06304 123.391 8.36597 122.989 7.76007C121.317 5.2407 119.658 2.69941 118.081 0.116563H112.638V16.081C112.638 16.0937 112.792 16.2541 112.805 16.2541L112.806 16.2518ZM80.2029 31.293L85.0899 37H80.1462L75.5359 31.525L73.9818 31.4673V36.8269C73.9818 36.8396 73.8272 37 73.815 37H69.6494V20.7482H79.5914C85.0421 21.3206 86.0404 28.4101 81.1667 30.7968C80.9066 30.9237 80.5831 30.9699 80.3418 31.0969C80.2373 31.1522 80.1628 31.0668 80.2029 31.293ZM79.1189 24.6963C79.0267 24.6524 78.4097 24.4366 78.3697 24.4366H74.0373C74.0251 24.4366 73.8706 24.597 73.8706 24.6097V27.6646H78.9244C78.9566 27.6646 79.4013 27.383 79.4802 27.3184C80.3629 26.6017 80.1106 25.1752 79.1189 24.6963ZM74.4264 16.2518H69.4827L64.7124 10.7134C64.5078 10.5333 63.0959 10.5276 63.0959 10.7769V16.3672H59.0416C59.0293 16.3672 58.8748 16.2068 58.8748 16.1941V0.115409H69.0391C74.5243 0.717842 75.308 8.4456 69.7028 10.2575C69.5861 10.2956 69.4971 10.179 69.5372 10.4329C69.5572 10.5576 70.3242 11.4624 70.4821 11.6436C71.7228 13.0723 73.059 14.4318 74.3208 15.8433L74.4264 16.2518ZM68.919 4.27358C68.8012 4.13047 68.0664 3.68846 67.9274 3.68846H63.0948V6.91644H67.9274C68.0519 6.91644 68.7434 6.53097 68.8712 6.3971C69.4082 5.83621 69.4115 4.8714 68.919 4.27358ZM99.3642 20.7482H86.3117V37H99.531V33.4847C99.531 33.472 99.3764 33.3115 99.3642 33.3115H90.644V30.776H99.3086V26.9721H90.644V24.552H99.3642C99.3764 24.552 99.531 24.3916 99.531 24.3789V20.9213C99.531 20.9086 99.3764 20.7482 99.3642 20.7482ZM19.7728 20.9201V36.8269C19.7728 36.8396 19.9273 37 19.9395 37H32.9921V33.3115H23.9939V30.776H32.7697V27.1453C32.7697 27.1326 32.6152 26.9721 32.603 26.9721H23.9939V24.552H32.8253C32.8375 24.552 32.9921 24.3916 32.9921 24.3789V20.7482H19.9395C19.9273 20.7482 19.7728 20.9086 19.7728 20.9213V20.9201ZM43.1008 16.2518H56.0422C56.0544 16.2518 56.2089 16.0914 56.2089 16.0787V12.448H47.322V9.91245H55.9866V6.22399H47.322V3.68846H56.2089V0.115409H42.9896V15.9645C42.9896 16.0026 43.1364 16.1399 43.1008 16.253V16.2518ZM92.8663 16.3672L99.8044 0.10733L105.182 0.131566L112.084 16.3684H107.363L105.986 13.0977C103.674 12.9442 101.281 13.0469 98.9384 13.0446C98.6805 13.1358 97.7545 15.9091 97.5321 16.3684H92.8663V16.3672ZM100.309 9.33656H104.641L102.476 4.03353L100.31 9.33656H100.309ZM12.2043 0.130412L18.9957 16.2518H14.4966C14.4455 16.2518 14.2521 16.1284 14.2209 16.0464L13.0536 13.0239L12.7257 12.9027L5.96096 12.9281C5.60966 13.0527 4.73809 16.2518 4.3879 16.2518H0L6.82698 0.10733L12.2043 0.131566V0.130412ZM11.664 9.33656L9.49841 4.03353L7.33281 9.33656H11.6651H11.664ZM106.691 26.9768C105.001 26.8117 104.938 24.8602 106.585 24.6674L113.676 24.649C113.911 24.5659 115.188 21.3621 115.305 20.8636H106.14C100.333 20.8636 99.1585 30.2209 105.698 30.7749C106.816 30.8695 110.108 30.5267 110.853 30.9595C111.932 31.5862 111.405 33.083 110.584 33.083H101.808C101.796 33.083 101.641 33.2434 101.641 33.2561V36.8869H111.027C114.566 36.8869 116.745 32.2994 115.14 29.1603C113.615 26.1735 109.294 27.2318 106.69 26.9779L106.691 26.9768ZM128.141 27.3114C126.008 26.6075 123.645 27.3518 121.717 26.9456C120.441 26.6767 120.374 24.8879 121.813 24.6767L129.006 24.649C129.198 24.5809 130.78 21.0067 130.634 20.8636H121.469C117.126 20.8636 114.835 26.7748 118.134 29.6265C120.232 31.4396 123.011 30.5325 125.473 30.7726C126.392 30.8626 127.265 31.5966 126.635 32.5648C126.56 32.6803 126.113 33.083 126.024 33.083H117.137C117.125 33.083 116.97 33.2434 116.97 33.2561V36.7138C116.97 36.7265 117.125 36.8869 117.137 36.8869H126.246C131.273 36.8869 132.945 28.9006 128.141 27.3138V27.3114ZM52.4314 20.7482H47.1552C46.5504 21.2571 43.5555 25.4822 43.1542 25.4811C42.8607 25.4811 39.7957 21.3921 39.2888 20.9017L39.0464 20.7482H33.6591L40.416 28.8556L33.4368 37.0012H38.9353L43.0452 31.9324L47.2664 37.0012H52.7649L45.7745 28.7437L52.4314 20.7482ZM67.9819 27.1441C67.7695 29.3426 65.5384 31.6981 63.3728 31.6981H57.5408V37H53.3196V20.7482H63.1504C66.3321 20.7482 68.2698 24.1677 67.9819 27.1441ZM62.8036 24.6813C62.7269 24.6363 62.1921 24.4355 62.151 24.4355H57.3184V28.0085H62.2622C62.3011 28.0085 62.9036 27.7569 62.9759 27.7119C63.992 27.0714 63.8085 25.2745 62.8036 24.6813ZM89.4789 16.1364C89.8714 16.1537 90.7307 16.238 90.9831 15.9714L92.6428 12.3349H89.2544C89.0798 12.3349 88.1104 12.0002 87.9014 11.894C85.5679 10.7111 85.4734 6.20321 87.539 4.67636C87.8025 4.48132 88.7452 4.03468 89.032 4.03468H94.6417V0H88.1438C85.6569 0 82.9565 2.56669 82.2562 4.95565C80.5164 10.8807 83.4012 15.8721 89.4778 16.1353L89.4789 16.1364ZM75.7038 16.2518H79.7026C79.7148 16.2518 79.8693 16.0914 79.8693 16.0787V0.115409H75.537V16.0799C75.537 16.0926 75.6916 16.253 75.7038 16.253V16.2518Z" fill="#AAADBD"/>
</g>
<defs>
<clipPath id="clip0_353_922">
<rect width="131" height="37" fill="white"/>
</clipPath>
</defs>
</svg>
