<svg width="95" height="39" viewBox="0 0 95 39" fill="none" xmlns="http://www.w3.org/2000/svg">
<g clip-path="url(#clip0_353_926)">
<path d="M73.1475 15.4581C73.2392 15.521 73.3604 17.2335 74.0288 17.2395C74.0318 16.8952 74.4724 15.4581 74.7682 15.4581H89.6591V18.1347C89.3633 18.4311 82.4192 17.9461 81.3042 17.9491C76.868 17.9611 71.0714 18.6587 66.783 18.1617C66.1442 18.0868 66.4547 17.4281 66.2181 17.5419C65.8484 17.7186 65.8544 18.0629 65.0529 18.1527C64.1627 18.2515 58.8806 18.2874 58.2951 18.0928C57.4729 17.8204 57.8988 16.1856 57.813 15.4581C59.7827 15.8234 72.4407 14.979 73.1445 15.4581H73.1475ZM49.4108 5.05389H21.2527V7.73054H50.443C50.5642 7.23653 49.7687 5.05389 49.4108 5.05389ZM21.2527 30.9132V33.2904H49.8544C49.9757 33.2904 50.2123 31.2575 50.443 30.9132H21.2527ZM20.9569 35.9671C21.0723 37.2874 20.3832 38.4581 21.9743 38.6557C26.2153 39.1826 37.0693 39.0479 41.4434 38.6347C43.4308 38.4461 45.9239 37.524 47.1986 35.9641H20.9569V35.9671ZM42.6293 0H21.2527V2.67665H47.1986C46.752 1.66467 43.5166 0 42.6293 0ZM26.2656 15.4581C26.3721 16.3743 25.8042 17.9491 27.002 18.1347C33.0471 17.6737 39.9558 18.7455 45.8914 18.1527C47.24 18.018 48.5058 16.7156 48.9701 15.4581H26.2656ZM46.758 20.509H26.5614V23.1856H48.9701C48.9761 22.5808 47.2873 20.509 46.758 20.509ZM0.0239406 5.05389V7.73054H18.5998V5.05389H0.0239406ZM0.0239406 0V2.67665H18.5998V0H0.0239406ZM0.0239406 35.9671C0.0239406 36.4611 -0.147593 38.6437 0.467562 38.6437H18.5998V35.9671H0.0239406ZM68.593 5.03593L52.9894 5.09281C52.1672 5.36527 52.593 7 52.5073 7.72754H70.1989C70.0806 6.73952 69.8529 5.00599 68.593 5.03593ZM94.4827 5.09581L78.8791 5.03892C77.6251 4.96108 77.6044 6.77545 77.2732 7.73054H94.9648C94.879 7.00299 95.3019 5.36826 94.4827 5.09581ZM0.316731 30.9132V33.2904H18.5969V30.9132H0.316731ZM67.3982 0H52.5073V2.67665H68.4303C68.5516 2.18263 67.756 0 67.3982 0ZM79.929 0C79.79 0 79.1393 2.35629 79.0447 2.67665H94.5241C95.1393 2.67665 94.9677 0.497006 94.9677 0H79.929ZM70.3616 10.0898C66.6618 9.66168 62.0954 10.4072 58.298 10.1467C57.4758 10.4192 57.9017 12.0539 57.816 12.7814H71.9675C71.8018 11.6467 71.7043 10.2455 70.3616 10.0898ZM76.5368 10.1078C76.2144 10.1078 75.5667 12.3084 75.5046 12.7844H89.6561V10.1078H76.5338H76.5368ZM81.6976 35.9671V38.6437H94.9648V35.9671H81.6976ZM52.8001 35.9671V38.6437H65.6266C66.2418 38.6437 66.0703 36.4641 66.0703 35.9671H52.803H52.8001ZM67.5431 20.509C67.7619 21.6347 67.8921 23.0419 69.149 23.2006C72.1745 23.5808 76.031 22.9192 79.1512 23.1437C79.7101 22.9551 80.0503 21.1407 80.2247 20.509H67.546H67.5431ZM52.8001 30.9132V33.2904H66.0673V30.9132H52.8001ZM81.6976 30.9132V33.2904H94.9648V30.9132H81.6976ZM42.1857 10.1078V12.7844H50.443C50.5761 12.7844 50.6973 10.3862 50.7387 10.1078H42.1887H42.1857ZM69.3146 25.5629C69.3264 26.2485 69.7464 27.9671 70.3941 28.1916C71.0092 28.4012 77.3826 28.3473 77.6015 28.0569C77.7641 27.8443 78.5538 25.6527 78.4562 25.5659H69.3146V25.5629ZM49.9993 25.5629H42.1857V28.2395H50.7358C50.7979 27.7575 50.4104 25.5629 49.9993 25.5629ZM57.813 20.509V23.1856H66.0703V20.509H57.813ZM57.813 25.5629V28.2395H66.0703V25.5629H57.813ZM26.7063 10.1078C26.0911 10.1078 26.2627 12.2874 26.2627 12.7844H34.5199V10.1078H26.7063ZM26.7063 25.5629C26.0911 25.5629 26.2627 27.7425 26.2627 28.2395H34.5199V25.5629H26.7063ZM5.32965 10.1078V12.7844H13.2912V10.1078H5.32965ZM5.32965 15.4581V18.1347H13.2912V15.4581H5.32965ZM5.32965 20.509V23.1856H13.2912V20.509H5.32965ZM81.6976 20.509V23.1856H89.6591V20.509H81.6976ZM5.32965 25.5629V28.2395H13.2912V25.5629H5.32965ZM81.6976 25.5629V28.2395H89.6591V25.5629H81.6976ZM71.0832 30.9132C71.6421 33.5269 72.5146 33.6257 75.0817 33.3084C76.4007 33.1467 76.309 32.0689 76.3918 30.9132H71.0832ZM72.8518 35.9671L73.739 38.6377C74.3246 38.515 74.7623 36.1108 74.6203 35.9671H72.8518Z" fill="#AAADBD"/>
</g>
<defs>
<clipPath id="clip0_353_926">
<rect width="95" height="39" fill="white"/>
</clipPath>
</defs>
</svg>
