<svg width="147" height="32" viewBox="0 0 147 32" fill="none" xmlns="http://www.w3.org/2000/svg">
<path d="M39.2864 28.5919L20.3945 19.6569V0L39.2864 28.5919ZM40.7884 31.9997L20.3945 23.5426V31.9997H40.7884Z" fill="#C01933"/>
<path d="M1.50195 28.5919L20.3938 0V19.6569L1.50195 28.5919Z" fill="#E8354D"/>
<path d="M0 32H20.3939V23.543L0 32Z" fill="#E8354D"/>
<path d="M58.3486 1.06445C64.0744 1.06471 67.4766 4.05253 67.4766 9.02637C67.4764 13.9999 64.0742 16.9997 58.3486 17H52.7891V1.06445H58.3486ZM87.0049 3.83105H79.4434V7.32422H86.1318V10.0908H79.4434V14.2334H87.249V17H75.9121V1.06445H87.0049V3.83105ZM100.512 14.2334H107.304V17H96.9814V1.06445H100.512V14.2334ZM126.306 3.83105H121.003V17H117.459V3.83105H112.17V1.06445H126.306V3.83105ZM146.758 17H143.073L141.532 13.0127H135.126L133.585 17H130.145L136.73 1H140.287L146.758 17ZM56.3066 14.2207H58.3486C62.0585 14.2205 63.9207 12.3636 63.9209 9.02637C63.9209 5.68891 62.0586 3.8313 58.3486 3.83105H56.3066V14.2207ZM136.127 10.3379H140.531L138.336 4.67578L136.127 10.3379Z" fill="white"/>
<path d="M56.9331 22.18C56.7931 22.152 56.5411 22.124 56.2891 22.124C55.7151 22.124 55.3651 22.362 55.3651 22.978V24.322H56.7091L56.8631 25.372H55.3651V31H54.1471V25.372H53.1391V24.322H54.1471V22.852C54.1471 21.522 55.0291 21.018 56.2191 21.018C56.4711 21.018 56.6251 21.046 56.7511 21.046L56.9331 22.18ZM64.1097 27.668C64.1097 29.866 62.7937 31.14 61.0017 31.14C59.2237 31.14 57.9357 29.866 57.9357 27.668C57.9357 25.47 59.2237 24.182 61.0017 24.182C62.7937 24.182 64.1097 25.47 64.1097 27.668ZM62.8497 27.668C62.8497 26.296 62.2057 25.232 61.0017 25.232C59.7977 25.232 59.1957 26.268 59.1957 27.668C59.1957 29.04 59.8257 30.104 61.0017 30.104C62.2337 30.104 62.8497 29.068 62.8497 27.668ZM69.7545 25.372C68.6485 25.428 67.7105 26.17 67.2625 27.052V31H66.0165V24.322H67.0105L67.2205 25.68C67.6965 24.924 68.4665 24.238 69.5585 24.182L69.7545 25.372ZM80.6302 27.472C80.6302 29.908 79.2862 31.084 77.3542 31.084C76.3462 31.084 75.6322 30.93 74.7502 30.664V21.088L75.9962 20.892V25.106C76.4442 24.644 77.0882 24.182 77.9982 24.182C79.4402 24.182 80.6302 25.246 80.6302 27.472ZM79.3702 27.528C79.3702 26.072 78.7122 25.288 77.8162 25.288C77.1162 25.288 76.5002 25.75 75.9962 26.38V29.796C76.4162 29.95 76.7242 30.02 77.3402 30.02C78.6422 30.02 79.3702 29.25 79.3702 27.528ZM87.9531 31H86.9591L86.8051 30.034C86.1751 30.622 85.3771 31.14 84.4391 31.14C83.1651 31.14 82.5071 30.384 82.5071 29.18V24.322H83.7531V28.872C83.7531 29.558 84.0471 30.02 84.7751 30.02C85.4331 30.02 86.1051 29.586 86.7071 28.942V24.322H87.9531V31ZM94.8999 29.138C94.8999 30.356 93.9899 31.14 92.2679 31.14C91.3859 31.14 90.4059 30.832 89.8319 30.51L90.0139 29.334C90.6439 29.768 91.4559 30.104 92.3659 30.104C93.2199 30.104 93.7239 29.782 93.7239 29.222C93.7239 28.606 93.3459 28.382 92.1419 28.088C90.5739 27.696 89.9439 27.22 89.9439 26.03C89.9439 24.966 90.8399 24.182 92.2959 24.182C93.1219 24.182 93.8639 24.35 94.4939 24.63L94.2979 25.806C93.7099 25.47 92.9679 25.232 92.2679 25.232C91.5119 25.232 91.1199 25.526 91.1199 26.002C91.1199 26.45 91.4559 26.702 92.5059 26.968C94.1579 27.388 94.8999 27.864 94.8999 29.138ZM98.2633 22.194C98.2633 22.628 97.9133 22.978 97.4793 22.978C97.0453 22.978 96.6813 22.628 96.6813 22.194C96.6813 21.76 97.0453 21.396 97.4793 21.396C97.9133 21.396 98.2633 21.76 98.2633 22.194ZM98.0953 31H96.8493V24.322H98.0953V31ZM105.922 31H104.676V26.45C104.676 25.764 104.382 25.302 103.654 25.302C102.996 25.302 102.324 25.736 101.722 26.38V31H100.476V24.322H101.47L101.624 25.288C102.254 24.714 103.038 24.182 103.99 24.182C105.25 24.182 105.922 24.938 105.922 26.142V31ZM113.582 27.528C113.582 27.598 113.582 27.71 113.582 27.794H109.046C109.088 29.348 109.83 30.076 110.992 30.076C111.958 30.076 112.658 29.698 113.386 29.124L113.568 30.244C112.854 30.804 112 31.14 110.894 31.14C109.158 31.14 107.8 30.09 107.8 27.64C107.8 25.498 109.06 24.182 110.74 24.182C112.686 24.182 113.582 25.68 113.582 27.528ZM112.322 26.856C112.168 25.778 111.692 25.162 110.726 25.162C109.956 25.162 109.298 25.708 109.102 26.856H112.322ZM120.147 29.138C120.147 30.356 119.237 31.14 117.515 31.14C116.633 31.14 115.653 30.832 115.079 30.51L115.261 29.334C115.891 29.768 116.703 30.104 117.613 30.104C118.467 30.104 118.971 29.782 118.971 29.222C118.971 28.606 118.593 28.382 117.389 28.088C115.821 27.696 115.191 27.22 115.191 26.03C115.191 24.966 116.087 24.182 117.543 24.182C118.369 24.182 119.111 24.35 119.741 24.63L119.545 25.806C118.957 25.47 118.215 25.232 117.515 25.232C116.759 25.232 116.367 25.526 116.367 26.002C116.367 26.45 116.703 26.702 117.753 26.968C119.405 27.388 120.147 27.864 120.147 29.138ZM126.605 29.138C126.605 30.356 125.695 31.14 123.973 31.14C123.091 31.14 122.111 30.832 121.537 30.51L121.719 29.334C122.349 29.768 123.161 30.104 124.071 30.104C124.925 30.104 125.429 29.782 125.429 29.222C125.429 28.606 125.051 28.382 123.847 28.088C122.279 27.696 121.649 27.22 121.649 26.03C121.649 24.966 122.545 24.182 124.001 24.182C124.827 24.182 125.569 24.35 126.199 24.63L126.003 25.806C125.415 25.47 124.673 25.232 123.973 25.232C123.217 25.232 122.825 25.526 122.825 26.002C122.825 26.45 123.161 26.702 124.211 26.968C125.863 27.388 126.605 27.864 126.605 29.138Z" fill="white"/>
</svg>
