<svg width="41" height="55" viewBox="0 0 41 55" fill="none" xmlns="http://www.w3.org/2000/svg">
<g clip-path="url(#clip0_353_924)">
<path d="M41 0V19.2471H21.525V0H41ZM19.4067 0.168834C19.4067 0.15195 19.462 0.128989 19.46 0.1013L19.3725 0H0V19.2471H19.4067V0.168834ZM21.525 21.4838V40.7308H41V21.4838H21.525ZM19.4067 21.6526C19.4067 21.6357 19.462 21.6128 19.46 21.5851L19.3725 21.4838H0V40.7308H19.4067V21.6526ZM0 47.8138V54.8372C0.386083 54.9568 0.707933 54.8697 1.09333 54.8372V49.0969L1.16372 49.3873C1.23615 49.4481 1.26143 49.4332 1.30243 49.5338C2.03428 51.3174 2.72035 53.1422 3.55197 54.8724C3.71733 54.9554 4.19225 54.8811 4.2927 54.7245L6.62765 49.0969V54.8372C7.0069 54.9561 7.40665 54.9142 7.78932 54.8372V47.8138H6.18348L3.9278 53.1489L1.70765 47.8138H0ZM35.5333 54.8372C35.9099 54.9939 36.2447 54.8251 36.6267 54.8372V50.7177H38.6083V53.9255C38.6083 53.9708 38.8031 54.3571 38.8516 54.428C39.2992 55.0729 40.2073 55.0844 40.8907 54.8447L40.931 54.0268C40.8927 53.9863 40.1704 54.2767 39.8725 53.8911C39.8431 53.8533 39.701 53.5406 39.701 53.5203V50.7177H40.931V49.8398H39.8035L39.701 49.7385V48.354L38.6077 48.6242V49.7385L38.5052 49.8398H36.7285C36.5727 49.6797 36.6055 49.2867 36.6233 49.0604C36.6957 48.1636 37.1679 48.0501 37.992 48.219L37.9954 47.3856C37.0825 46.9817 35.7732 47.547 35.5627 48.5526C35.4739 48.9794 35.6188 49.4258 35.4541 49.8303L34.6436 49.8391V50.7177H35.5327V54.8372H35.5333ZM29.1975 52.8936C29.5262 55.5619 33.6268 55.7577 34.3122 53.1239C34.848 51.0655 33.5312 49.4292 31.3486 49.7223C29.7141 49.9417 29.0116 51.3836 29.1975 52.8936ZM32.2875 54.0289C31.9472 54.114 31.4497 54.0782 31.117 53.9701C30.8764 53.8924 30.5922 53.465 30.4917 53.2354C30.1439 52.4364 30.3366 51.0439 31.2468 50.7028C31.6493 50.5522 32.3019 50.5624 32.6558 50.8258C32.7652 50.9075 32.8 51.0952 32.9831 51.1371C33.3508 52.0062 33.4355 53.7425 32.2875 54.0289ZM19.2106 52.6343C19.4333 55.7874 24.0732 55.7132 24.4456 52.8281C24.7018 50.8426 23.4992 49.4764 21.4416 49.7243C19.9369 49.9053 19.1094 51.1952 19.2106 52.635V52.6343ZM22.7038 50.8946C22.729 50.9122 22.8103 50.8629 22.8568 50.9162C22.9087 50.9764 22.9163 51.0743 22.9627 51.1411C23.3386 51.6807 23.3775 52.3696 23.2149 53.0294C23.1138 53.4393 22.9334 53.6493 22.6737 53.9404C21.9405 54.1477 21.1731 54.1828 20.6592 53.5372C20.6469 53.5217 20.6968 53.4656 20.6783 53.4352C20.6633 53.4103 20.5096 53.2455 20.5062 53.2326C20.3073 52.4634 20.3319 51.1756 21.1348 50.7704C21.6671 50.5023 22.1441 50.561 22.6634 50.8143C22.6812 50.823 22.6833 50.8798 22.7038 50.894V50.8946ZM25.1467 54.6684C26.0931 55.2019 27.9593 55.1236 28.4123 53.9796C28.7226 53.1955 28.372 52.562 27.6757 52.169C27.2452 51.9259 26.3432 51.7638 26.3036 51.2235C26.2345 50.2713 27.6907 50.5401 28.2203 50.8528L28.2565 49.9742C27.0135 49.1455 24.4688 50.17 25.3127 51.8705C25.7268 52.7045 27.3156 52.8139 27.3996 53.4589C27.5336 54.4834 25.6448 54.1173 25.146 53.6892V54.6684H25.1467ZM15.0689 49.9735C13.4863 49.1955 11.4465 50.0788 11.1691 51.8624C10.7919 54.2909 12.9123 55.6942 15.0682 54.6353L15.101 53.7574C14.4498 54.0383 13.8539 54.245 13.1514 53.962C12.0485 53.5176 12.0116 51.5315 12.9191 50.8913C13.6106 50.403 14.391 50.5961 15.101 50.9203L15.0682 49.9742L15.0689 49.9735ZM17.3225 50.6508L17.22 49.8398H16.1267V54.8035C16.4096 55.0378 16.879 54.8264 17.22 54.9048V52.2372C17.22 52.1346 17.3164 51.6875 17.3533 51.5585C17.5911 50.7278 18.3038 50.5678 19.065 50.8528V49.7722C18.2484 49.5494 17.7175 50.0045 17.3225 50.6508ZM9.02 49.8398V54.8372C9.41497 54.9304 9.7867 54.9304 10.1817 54.8372V49.8398H9.02ZM10.1502 48.6944C10.5951 48.223 10.0566 47.5402 9.54958 47.622C8.3025 47.8239 9.28923 49.6061 10.1502 48.6944Z" fill="#AAADBD"/>
</g>
<defs>
<clipPath id="clip0_353_924">
<rect width="41" height="55" fill="white"/>
</clipPath>
</defs>
</svg>
