<svg width="147" height="32" viewBox="0 0 147 32" fill="none" xmlns="http://www.w3.org/2000/svg">
<path d="M39.2854 28.5919L20.3936 19.6569V0L39.2854 28.5919ZM40.7874 31.9997L20.3936 23.5426V31.9997H40.7874Z" fill="#C01933"/>
<path d="M1.50195 28.5919L20.3938 0V19.6569L1.50195 28.5919Z" fill="#E8354D"/>
<path d="M0 32H20.3939V23.543L0 32Z" fill="#E8354D"/>
<path d="M58.3467 1.06445C64.0724 1.06471 67.4746 4.05253 67.4746 9.02637C67.4744 13.9999 64.0723 16.9997 58.3467 17H52.7871V1.06445H58.3467ZM87.0029 3.83105H79.4414V7.32422H86.1299V10.0908H79.4414V14.2334H87.2471V17H75.9102V1.06445H87.0029V3.83105ZM100.51 14.2334H107.302V17H96.9795V1.06445H100.51V14.2334ZM126.304 3.83105H121.001V17H117.457V3.83105H112.168V1.06445H126.304V3.83105ZM146.756 17H143.071L141.53 13.0127H135.124L133.583 17H130.143L136.729 1H140.285L146.756 17ZM56.3047 14.2207H58.3467C62.0565 14.2205 63.9188 12.3636 63.9189 9.02637C63.9189 5.68891 62.0567 3.8313 58.3467 3.83105H56.3047V14.2207ZM136.125 10.3379H140.529L138.334 4.67578L136.125 10.3379Z" fill="white"/>
<path d="M56.9311 22.18C56.7911 22.152 56.5391 22.124 56.2871 22.124C55.7131 22.124 55.3631 22.362 55.3631 22.978V24.322H56.7071L56.8611 25.372H55.3631V31H54.1451V25.372H53.1371V24.322H54.1451V22.852C54.1451 21.522 55.0271 21.018 56.2171 21.018C56.4691 21.018 56.6231 21.046 56.7491 21.046L56.9311 22.18ZM64.1077 27.668C64.1077 29.866 62.7917 31.14 60.9997 31.14C59.2217 31.14 57.9337 29.866 57.9337 27.668C57.9337 25.47 59.2217 24.182 60.9997 24.182C62.7917 24.182 64.1077 25.47 64.1077 27.668ZM62.8477 27.668C62.8477 26.296 62.2037 25.232 60.9997 25.232C59.7957 25.232 59.1937 26.268 59.1937 27.668C59.1937 29.04 59.8237 30.104 60.9997 30.104C62.2317 30.104 62.8477 29.068 62.8477 27.668ZM69.7525 25.372C68.6465 25.428 67.7085 26.17 67.2605 27.052V31H66.0145V24.322H67.0085L67.2185 25.68C67.6945 24.924 68.4645 24.238 69.5565 24.182L69.7525 25.372ZM80.6283 27.472C80.6283 29.908 79.2843 31.084 77.3523 31.084C76.3443 31.084 75.6303 30.93 74.7483 30.664V21.088L75.9943 20.892V25.106C76.4423 24.644 77.0863 24.182 77.9963 24.182C79.4383 24.182 80.6283 25.246 80.6283 27.472ZM79.3683 27.528C79.3683 26.072 78.7103 25.288 77.8143 25.288C77.1143 25.288 76.4983 25.75 75.9943 26.38V29.796C76.4143 29.95 76.7223 30.02 77.3383 30.02C78.6403 30.02 79.3683 29.25 79.3683 27.528ZM87.9511 31H86.9571L86.8031 30.034C86.1731 30.622 85.3751 31.14 84.4371 31.14C83.1631 31.14 82.5051 30.384 82.5051 29.18V24.322H83.7511V28.872C83.7511 29.558 84.0451 30.02 84.7731 30.02C85.4311 30.02 86.1031 29.586 86.7051 28.942V24.322H87.9511V31ZM94.8979 29.138C94.8979 30.356 93.9879 31.14 92.2659 31.14C91.3839 31.14 90.4039 30.832 89.8299 30.51L90.0119 29.334C90.6419 29.768 91.4539 30.104 92.3639 30.104C93.2179 30.104 93.7219 29.782 93.7219 29.222C93.7219 28.606 93.3439 28.382 92.1399 28.088C90.5719 27.696 89.9419 27.22 89.9419 26.03C89.9419 24.966 90.8379 24.182 92.2939 24.182C93.1199 24.182 93.8619 24.35 94.4919 24.63L94.2959 25.806C93.7079 25.47 92.9659 25.232 92.2659 25.232C91.5099 25.232 91.1179 25.526 91.1179 26.002C91.1179 26.45 91.4539 26.702 92.5039 26.968C94.1559 27.388 94.8979 27.864 94.8979 29.138ZM98.2613 22.194C98.2613 22.628 97.9113 22.978 97.4773 22.978C97.0433 22.978 96.6793 22.628 96.6793 22.194C96.6793 21.76 97.0433 21.396 97.4773 21.396C97.9113 21.396 98.2613 21.76 98.2613 22.194ZM98.0933 31H96.8473V24.322H98.0933V31ZM105.92 31H104.674V26.45C104.674 25.764 104.38 25.302 103.652 25.302C102.994 25.302 102.322 25.736 101.72 26.38V31H100.474V24.322H101.468L101.622 25.288C102.252 24.714 103.036 24.182 103.988 24.182C105.248 24.182 105.92 24.938 105.92 26.142V31ZM113.58 27.528C113.58 27.598 113.58 27.71 113.58 27.794H109.044C109.086 29.348 109.828 30.076 110.99 30.076C111.956 30.076 112.656 29.698 113.384 29.124L113.566 30.244C112.852 30.804 111.998 31.14 110.892 31.14C109.156 31.14 107.798 30.09 107.798 27.64C107.798 25.498 109.058 24.182 110.738 24.182C112.684 24.182 113.58 25.68 113.58 27.528ZM112.32 26.856C112.166 25.778 111.69 25.162 110.724 25.162C109.954 25.162 109.296 25.708 109.1 26.856H112.32ZM120.145 29.138C120.145 30.356 119.235 31.14 117.513 31.14C116.631 31.14 115.651 30.832 115.077 30.51L115.259 29.334C115.889 29.768 116.701 30.104 117.611 30.104C118.465 30.104 118.969 29.782 118.969 29.222C118.969 28.606 118.591 28.382 117.387 28.088C115.819 27.696 115.189 27.22 115.189 26.03C115.189 24.966 116.085 24.182 117.541 24.182C118.367 24.182 119.109 24.35 119.739 24.63L119.543 25.806C118.955 25.47 118.213 25.232 117.513 25.232C116.757 25.232 116.365 25.526 116.365 26.002C116.365 26.45 116.701 26.702 117.751 26.968C119.403 27.388 120.145 27.864 120.145 29.138ZM126.603 29.138C126.603 30.356 125.693 31.14 123.971 31.14C123.089 31.14 122.109 30.832 121.535 30.51L121.717 29.334C122.347 29.768 123.159 30.104 124.069 30.104C124.923 30.104 125.427 29.782 125.427 29.222C125.427 28.606 125.049 28.382 123.845 28.088C122.277 27.696 121.647 27.22 121.647 26.03C121.647 24.966 122.543 24.182 123.999 24.182C124.825 24.182 125.567 24.35 126.197 24.63L126.001 25.806C125.413 25.47 124.671 25.232 123.971 25.232C123.215 25.232 122.823 25.526 122.823 26.002C122.823 26.45 123.159 26.702 124.209 26.968C125.861 27.388 126.603 27.864 126.603 29.138Z" fill="white"/>
</svg>
