<svg width="118" height="23" viewBox="0 0 118 23" fill="none" xmlns="http://www.w3.org/2000/svg">
<g clip-path="url(#clip0_199_4521)">
<path d="M8.71106 0.161621H0V22.5822C5.27511 22.3524 11.426 23.7579 15.4079 19.2447C17.9921 16.3163 18.5016 11.2357 17.6808 7.48755C16.6717 2.87871 13.1212 0.466198 8.71106 0.161621ZM11.8264 13.8403C11.1527 16.7623 8.86903 17.9436 6.07505 17.6037C5.99684 17.594 5.80789 17.5667 5.80789 17.4791V5.06298C6.56911 5.11843 7.41938 4.98825 8.16976 5.06298C12.1857 5.46319 12.5698 10.6185 11.8264 13.8403Z" fill="#AAADBD"/>
<path d="M44.7971 10.9278C43.0261 17.4493 46.6146 23.8044 53.5476 22.8216C55.1924 22.5885 56.5987 22.0444 57.8013 20.847C60.3266 18.3333 60.7502 13.6368 59.5305 10.3467C57.0448 3.64203 46.7183 3.85338 44.7971 10.9278ZM52.6912 18.5567C50.0312 18.9167 49.8538 15.4932 49.9452 13.538C50.001 12.3462 50.2968 10.1531 51.7092 9.90394C53.5685 9.57606 54.2748 10.8161 54.5079 12.5061C54.7317 14.1303 54.8238 18.2682 52.6912 18.5567Z" fill="#AAADBD"/>
<path d="M25.2838 15.7514H34.8474C34.8157 13.5487 34.9992 11.1908 34.0366 9.15921C32.9417 6.84796 30.6402 5.68591 28.2295 5.54206C22.0941 5.1756 19.266 9.03626 19.5882 15.1527C19.9119 21.2989 24.37 23.3659 29.697 22.8226C31.1064 22.6787 32.5359 22.3846 33.7695 21.6461L32.9866 17.9228C32.3485 17.9847 31.7793 18.2997 31.1304 18.4444C30.0199 18.6911 28.3836 18.8647 27.2848 18.5762C25.9854 18.2363 25.2133 17.1972 25.0894 15.8342C25.1684 15.8511 25.2419 15.7587 25.283 15.7514H25.2838ZM29.8914 12.1351H25.245C25.1568 8.61113 29.8867 8.56211 29.8914 12.1351Z" fill="#AAADBD"/>
<path d="M109.175 8.4114C108.03 6.66028 105.969 5.68949 103.96 5.54564C99.6046 5.23463 96.2608 7.01307 95.3633 11.65C94.4402 16.4172 95.8604 21.4745 100.9 22.6253C101.895 22.8527 103.076 22.9588 104.035 22.8189C104.406 22.7651 104.885 22.8623 105.277 22.8222C106.41 22.7064 107.743 22.4525 108.776 21.9534C108.951 21.869 109.235 21.7823 109.269 21.5749L108.49 17.8404C107.568 18.2125 106.645 18.5131 105.655 18.6344C103.86 18.8538 101.544 18.845 100.845 16.7338C100.795 16.5811 100.554 15.751 100.786 15.751H110.349C110.341 13.2268 110.609 10.6037 109.174 8.4114H109.175ZM105.394 12.1346H100.864C100.644 12.1346 100.842 11.413 100.881 11.2683C101.651 8.38006 105.629 9.15958 105.394 12.1346Z" fill="#AAADBD"/>
<path d="M77.6175 17.8969C77.5718 17.8438 77.2837 17.1985 77.2837 17.1575V10.2061H80.6523C80.6608 10.2061 80.7684 10.0944 80.7684 10.0856V5.90667C80.7684 5.89783 80.6608 5.78612 80.6523 5.78612H77.2837V0.5625L71.7081 1.64741V5.78612H69.9658C69.9572 5.78612 69.8496 5.89783 69.8496 5.90667V10.2061H71.7081C71.7755 12.4081 71.6183 14.6398 71.705 16.8393C71.8096 19.5138 72.2556 22.0886 75.1758 22.7203C75.4972 22.7894 76.682 22.9943 76.9352 22.9943C77.1706 22.9943 77.2527 22.8521 77.4037 22.8272C77.7143 22.7765 78.0852 22.8577 78.4058 22.8224C79.4071 22.7098 80.499 22.39 81.3879 21.899V17.7603C80.4718 17.88 78.3562 18.7495 77.6175 17.8969Z" fill="#AAADBD"/>
<path d="M90.1732 17.8446C90.0872 17.7442 89.8286 17.1624 89.8286 17.0772V10.2061H93.1972C93.2057 10.2061 93.3133 10.0944 93.3133 10.0856V5.90667C93.3133 5.89783 93.2057 5.78612 93.1972 5.78612H89.8286V0.5625C89.3701 0.779481 84.3305 1.27773 84.3305 1.56704V5.78612H82.5106C82.4255 5.78612 82.3999 5.98221 82.3906 6.06337C82.3008 6.85897 82.3008 9.13326 82.3906 9.92885C82.3999 10.01 82.4262 10.2061 82.5106 10.2061H84.3305V18.2826C84.3305 20.6445 85.9783 22.488 88.1853 22.8007C88.382 22.8288 89.4871 22.9975 89.5568 22.9927C89.7248 22.9823 89.8177 22.8481 89.9486 22.8272C90.2816 22.7733 90.6843 22.8609 91.0273 22.8216C92 22.7115 93.0764 22.3836 93.9328 21.899V17.7603C92.9416 17.8993 90.97 18.7753 90.1732 17.8446Z" fill="#AAADBD"/>
<path d="M42.3585 0H36.8604V22.5821H42.3585V0Z" fill="#AAADBD"/>
<path d="M67.6427 5.78613H62.3769C62.3684 5.78613 62.2607 5.89784 62.2607 5.90668V22.5821H67.7589V5.90668C67.7589 5.89784 67.6512 5.78613 67.6427 5.78613Z" fill="#AAADBD"/>
<path d="M112.713 17.1994C109.739 19.8088 113.421 24.8572 116.655 22.2944C120.211 19.4753 115.954 14.3561 112.713 17.1994Z" fill="#AAADBD"/>
<path d="M67.7589 0H62.2607V3.85744H67.7589V0Z" fill="#AAADBD"/>
</g>
<defs>
<clipPath id="clip0_199_4521">
<rect width="118" height="23" fill="white"/>
</clipPath>
</defs>
</svg>
